<svg width="271" height="39" viewBox="0 0 271 39" fill="none" xmlns="http://www.w3.org/2000/svg">
<path d="M10.8409 30H0.528409V0.90909H10.9261C13.8523 0.90909 16.3712 1.49148 18.483 2.65625C20.5947 3.81155 22.2188 5.47348 23.3551 7.64205C24.5009 9.81061 25.0739 12.4053 25.0739 15.4261C25.0739 18.4564 24.5009 21.0606 23.3551 23.2386C22.2188 25.4167 20.5852 27.0881 18.4545 28.2528C16.3333 29.4176 13.7955 30 10.8409 30ZM6.67898 24.7301H10.5852C12.4034 24.7301 13.9328 24.4081 15.1733 23.7642C16.4233 23.1108 17.3608 22.1023 17.9858 20.7386C18.6203 19.3655 18.9375 17.5947 18.9375 15.4261C18.9375 13.2765 18.6203 11.5199 17.9858 10.1562C17.3608 8.79261 16.428 7.78883 15.1875 7.14489C13.947 6.50095 12.4176 6.17898 10.5994 6.17898H6.67898V24.7301ZM39.4595 30.4261C37.2152 30.4261 35.2834 29.9716 33.6641 29.0625C32.0542 28.1439 30.8137 26.8466 29.9425 25.1705C29.0713 23.4848 28.6357 21.4915 28.6357 19.1903C28.6357 16.946 29.0713 14.9763 29.9425 13.2812C30.8137 11.5862 32.04 10.2652 33.6214 9.31818C35.2124 8.37121 37.0779 7.89773 39.218 7.89773C40.6574 7.89773 41.9974 8.12973 43.2379 8.59375C44.4879 9.0483 45.5769 9.73485 46.505 10.6534C47.4425 11.572 48.1716 12.7273 48.6925 14.1193C49.2133 15.5019 49.4737 17.1212 49.4737 18.9773V20.6392H31.0504V16.8892H43.7777C43.7777 16.018 43.5883 15.2462 43.2095 14.5739C42.8307 13.9015 42.3052 13.3759 41.6328 12.9972C40.9699 12.6089 40.1982 12.4148 39.3175 12.4148C38.3989 12.4148 37.5845 12.6278 36.8743 13.054C36.1735 13.4706 35.6243 14.0341 35.2266 14.7443C34.8288 15.4451 34.6252 16.2263 34.6158 17.0881V20.6534C34.6158 21.733 34.8146 22.6657 35.2124 23.4517C35.6196 24.2377 36.1925 24.8438 36.9311 25.2699C37.6697 25.696 38.5457 25.9091 39.5589 25.9091C40.2313 25.9091 40.8468 25.8144 41.4055 25.625C41.9643 25.4356 42.4425 25.1515 42.8402 24.7727C43.2379 24.3939 43.541 23.9299 43.7493 23.3807L49.3459 23.75C49.0618 25.0947 48.4794 26.2689 47.5987 27.2727C46.7275 28.267 45.6006 29.0436 44.218 29.6023C42.8449 30.1515 41.2588 30.4261 39.4595 30.4261ZM73.1776 8.18182L65.5497 30H58.7315L51.1037 8.18182H57.4957L62.027 23.7926H62.2543L66.7713 8.18182H73.1776Z" fill="white"/>
<path d="M102.055 11.0938H95.8338C95.7202 10.2888 95.4882 9.57386 95.1378 8.94886C94.7874 8.31439 94.3376 7.77462 93.7884 7.32955C93.2391 6.88447 92.6046 6.54356 91.8849 6.30682C91.1747 6.07008 90.4029 5.9517 89.5696 5.9517C88.0639 5.9517 86.7524 6.32576 85.6349 7.07386C84.5175 7.8125 83.651 8.89205 83.0355 10.3125C82.42 11.7235 82.1122 13.4375 82.1122 15.4545C82.1122 17.5284 82.42 19.2708 83.0355 20.6818C83.6605 22.0928 84.5317 23.1581 85.6491 23.8778C86.7666 24.5975 88.0592 24.9574 89.527 24.9574C90.3509 24.9574 91.1132 24.8485 91.8139 24.6307C92.5241 24.4129 93.1539 24.0956 93.7031 23.679C94.2524 23.2528 94.7069 22.7367 95.0668 22.1307C95.4361 21.5246 95.6918 20.8333 95.8338 20.0568L102.055 20.0852C101.894 21.4205 101.492 22.7083 100.848 23.9489C100.214 25.1799 99.3565 26.2831 98.277 27.2585C97.2069 28.2244 95.9285 28.9915 94.4418 29.5597C92.9645 30.1184 91.2931 30.3977 89.4276 30.3977C86.8329 30.3977 84.5128 29.8106 82.4673 28.6364C80.4313 27.4621 78.8215 25.7623 77.6378 23.5369C76.4635 21.3116 75.8764 18.6174 75.8764 15.4545C75.8764 12.2822 76.473 9.58333 77.6662 7.35795C78.8594 5.13258 80.4787 3.4375 82.5241 2.27273C84.5696 1.09848 86.8707 0.511363 89.4276 0.511363C91.1132 0.511363 92.6757 0.748105 94.1151 1.22159C95.5639 1.69508 96.8471 2.38636 97.9645 3.29545C99.0819 4.19507 99.991 5.29829 100.692 6.60511C101.402 7.91193 101.857 9.40814 102.055 11.0938ZM112.403 17.3864V30H106.352V0.90909H112.233V12.0312H112.489C112.981 10.7434 113.777 9.73485 114.875 9.00568C115.973 8.26705 117.351 7.89773 119.009 7.89773C120.524 7.89773 121.845 8.22917 122.972 8.89205C124.108 9.54545 124.989 10.4877 125.614 11.7188C126.248 12.9403 126.561 14.4034 126.551 16.108V30H120.5V17.1875C120.509 15.8428 120.169 14.7964 119.477 14.0483C118.795 13.3002 117.839 12.9261 116.608 12.9261C115.784 12.9261 115.055 13.1013 114.42 13.4517C113.795 13.8021 113.303 14.3134 112.943 14.9858C112.593 15.6487 112.413 16.4489 112.403 17.3864ZM137.535 30.4119C136.143 30.4119 134.902 30.1705 133.813 29.6875C132.724 29.1951 131.862 28.4706 131.228 27.5142C130.603 26.5483 130.29 25.3456 130.29 23.9062C130.29 22.6941 130.513 21.6761 130.958 20.8523C131.403 20.0284 132.009 19.3655 132.776 18.8636C133.543 18.3617 134.415 17.983 135.39 17.7273C136.375 17.4716 137.407 17.2917 138.487 17.1875C139.755 17.0549 140.778 16.9318 141.555 16.8182C142.331 16.6951 142.895 16.5152 143.245 16.2784C143.595 16.0417 143.771 15.6913 143.771 15.2273V15.142C143.771 14.2424 143.487 13.5464 142.918 13.054C142.36 12.5616 141.564 12.3153 140.532 12.3153C139.443 12.3153 138.576 12.5568 137.933 13.0398C137.289 13.5133 136.862 14.1098 136.654 14.8295L131.058 14.375C131.342 13.0492 131.9 11.9034 132.734 10.9375C133.567 9.96212 134.642 9.21401 135.958 8.69318C137.284 8.16288 138.818 7.89773 140.56 7.89773C141.772 7.89773 142.933 8.03977 144.04 8.32386C145.158 8.60795 146.147 9.0483 147.009 9.64489C147.88 10.2415 148.567 11.0085 149.069 11.946C149.571 12.8741 149.822 13.9867 149.822 15.2841V30H144.083V26.9744H143.913C143.562 27.6562 143.094 28.2576 142.506 28.7784C141.919 29.2898 141.214 29.6922 140.39 29.9858C139.566 30.2699 138.614 30.4119 137.535 30.4119ZM139.268 26.2358C140.158 26.2358 140.944 26.0606 141.626 25.7102C142.308 25.3504 142.843 24.8674 143.231 24.2614C143.619 23.6553 143.813 22.9687 143.813 22.2017V19.8864C143.624 20.0095 143.363 20.1231 143.032 20.2273C142.71 20.322 142.345 20.4119 141.938 20.4972C141.531 20.5729 141.124 20.6439 140.717 20.7102C140.309 20.767 139.94 20.8191 139.609 20.8665C138.898 20.9706 138.278 21.1364 137.748 21.3636C137.218 21.5909 136.806 21.8987 136.512 22.2869C136.219 22.6657 136.072 23.1392 136.072 23.7074C136.072 24.5312 136.37 25.161 136.967 25.5966C137.573 26.0227 138.34 26.2358 139.268 26.2358ZM160.567 0.90909V30H154.516V0.90909H160.567ZM171.466 0.90909V30H165.415V0.90909H171.466ZM186.256 30.4261C184.012 30.4261 182.08 29.9716 180.461 29.0625C178.851 28.1439 177.611 26.8466 176.739 25.1705C175.868 23.4848 175.433 21.4915 175.433 19.1903C175.433 16.946 175.868 14.9763 176.739 13.2812C177.611 11.5862 178.837 10.2652 180.418 9.31818C182.009 8.37121 183.875 7.89773 186.015 7.89773C187.454 7.89773 188.794 8.12973 190.035 8.59375C191.285 9.0483 192.374 9.73485 193.302 10.6534C194.239 11.572 194.969 12.7273 195.489 14.1193C196.01 15.5019 196.271 17.1212 196.271 18.9773V20.6392H177.847V16.8892H190.575C190.575 16.018 190.385 15.2462 190.006 14.5739C189.628 13.9015 189.102 13.3759 188.43 12.9972C187.767 12.6089 186.995 12.4148 186.114 12.4148C185.196 12.4148 184.381 12.6278 183.671 13.054C182.97 13.4706 182.421 14.0341 182.023 14.7443C181.626 15.4451 181.422 16.2263 181.413 17.0881V20.6534C181.413 21.733 181.612 22.6657 182.009 23.4517C182.416 24.2377 182.989 24.8438 183.728 25.2699C184.467 25.696 185.343 25.9091 186.356 25.9091C187.028 25.9091 187.644 25.8144 188.202 25.625C188.761 25.4356 189.239 25.1515 189.637 24.7727C190.035 24.3939 190.338 23.9299 190.546 23.3807L196.143 23.75C195.859 25.0947 195.276 26.2689 194.396 27.2727C193.524 28.267 192.397 29.0436 191.015 29.6023C189.642 30.1515 188.056 30.4261 186.256 30.4261ZM206.271 17.3864V30H200.219V8.18182H205.987V12.0312H206.242C206.725 10.7623 207.535 9.75852 208.671 9.01989C209.808 8.27178 211.185 7.89773 212.805 7.89773C214.32 7.89773 215.641 8.22917 216.768 8.89205C217.895 9.55492 218.771 10.5019 219.396 11.733C220.021 12.9545 220.333 14.4129 220.333 16.108V30H214.282V17.1875C214.291 15.8523 213.951 14.8106 213.259 14.0625C212.568 13.3049 211.616 12.9261 210.404 12.9261C209.59 12.9261 208.87 13.1013 208.245 13.4517C207.629 13.8021 207.147 14.3134 206.796 14.9858C206.455 15.6487 206.28 16.4489 206.271 17.3864ZM234.932 38.6364C232.972 38.6364 231.291 38.3665 229.889 37.8267C228.497 37.2964 227.389 36.572 226.565 35.6534C225.741 34.7348 225.206 33.7027 224.96 32.5568L230.557 31.804C230.727 32.2396 230.997 32.6468 231.366 33.0256C231.736 33.4044 232.223 33.7074 232.83 33.9347C233.445 34.1714 234.193 34.2898 235.074 34.2898C236.39 34.2898 237.474 33.9678 238.327 33.3239C239.188 32.6894 239.619 31.6241 239.619 30.1278V26.1364H239.364C239.098 26.7424 238.701 27.3153 238.17 27.8551C237.64 28.3949 236.958 28.8352 236.125 29.1761C235.292 29.517 234.297 29.6875 233.142 29.6875C231.504 29.6875 230.012 29.3087 228.668 28.5511C227.332 27.7841 226.267 26.6146 225.472 25.0426C224.686 23.4612 224.293 21.4631 224.293 19.0483C224.293 16.5767 224.695 14.5123 225.5 12.8551C226.305 11.1979 227.375 9.95739 228.71 9.13352C230.055 8.30966 231.527 7.89773 233.128 7.89773C234.349 7.89773 235.372 8.10606 236.196 8.52273C237.02 8.92992 237.683 9.44129 238.185 10.0568C238.696 10.6629 239.089 11.2595 239.364 11.8466H239.591V8.18182H245.599V30.2131C245.599 32.0691 245.145 33.6222 244.236 34.8722C243.327 36.1222 242.067 37.0597 240.457 37.6847C238.857 38.3191 237.015 38.6364 234.932 38.6364ZM235.06 25.142C236.035 25.142 236.859 24.9006 237.531 24.4176C238.213 23.9252 238.734 23.2244 239.094 22.3153C239.463 21.3968 239.648 20.2983 239.648 19.0199C239.648 17.7415 239.468 16.6335 239.108 15.696C238.748 14.7491 238.227 14.0152 237.545 13.4943C236.864 12.9735 236.035 12.7131 235.06 12.7131C234.065 12.7131 233.227 12.983 232.545 13.5227C231.864 14.053 231.348 14.7917 230.997 15.7386C230.647 16.6856 230.472 17.7794 230.472 19.0199C230.472 20.2794 230.647 21.3684 230.997 22.2869C231.357 23.196 231.873 23.9015 232.545 24.4034C233.227 24.8958 234.065 25.142 235.06 25.142ZM260.358 30.4261C258.114 30.4261 256.182 29.9716 254.562 29.0625C252.953 28.1439 251.712 26.8466 250.841 25.1705C249.97 23.4848 249.534 21.4915 249.534 19.1903C249.534 16.946 249.97 14.9763 250.841 13.2812C251.712 11.5862 252.938 10.2652 254.52 9.31818C256.111 8.37121 257.976 7.89773 260.116 7.89773C261.556 7.89773 262.896 8.12973 264.136 8.59375C265.386 9.0483 266.475 9.73485 267.403 10.6534C268.341 11.572 269.07 12.7273 269.591 14.1193C270.112 15.5019 270.372 17.1212 270.372 18.9773V20.6392H251.949V16.8892H264.676C264.676 16.018 264.487 15.2462 264.108 14.5739C263.729 13.9015 263.204 13.3759 262.531 12.9972C261.868 12.6089 261.097 12.4148 260.216 12.4148C259.297 12.4148 258.483 12.6278 257.773 13.054C257.072 13.4706 256.523 14.0341 256.125 14.7443C255.727 15.4451 255.524 16.2263 255.514 17.0881V20.6534C255.514 21.733 255.713 22.6657 256.111 23.4517C256.518 24.2377 257.091 24.8438 257.83 25.2699C258.568 25.696 259.444 25.9091 260.457 25.9091C261.13 25.9091 261.745 25.8144 262.304 25.625C262.863 25.4356 263.341 25.1515 263.739 24.7727C264.136 24.3939 264.439 23.9299 264.648 23.3807L270.244 23.75C269.96 25.0947 269.378 26.2689 268.497 27.2727C267.626 28.267 266.499 29.0436 265.116 29.6023C263.743 30.1515 262.157 30.4261 260.358 30.4261Z" fill="#F4CF0A"/>
</svg>
